<svg xmlns="http://www.w3.org/2000/svg" viewBox="0 0 256 256" role="img" aria-label="CSS">
  <path fill="#1572B6" d="M48 24h160l-14.5 164.2L127.8 232l-65.3-43.8L48 24z"/>
  <path fill="#33A9DC" d="M128 38v169.8l53.2-35.7L193.6 38H128z"/>
  <path fill="#fff" d="M82.1 75.6h45.7v20.2h-23.7l1.5 18.8h22.2v20.2H87.1l-5-59.2zm6.7 79.3h20.6l1.5 17.2 17.1 11.5 17.2-11.5 1.8-22.6h-38.6l-1.8-20.2h62.6l-4.6 55.4-36.6 24.5-36.4-24.5-2.8-29.8z"/>
  <path fill="#EBEBEB" d="M128 75.6h48.9l-1.8 20.2H128V75.6zm0 39h45.3l-1.8 20.2H128v-20.2zm0 68.9 17.2-11.5 1.8-22.6h-19v-20.2h41.2l-4.6 55.4-36.6 24.5v-25.6z"/>
</svg>
